inDegrees=no
num_controls=7
num_derivatives=13
num_iterations=135
num_multipliers=7
num_parameters=0
num_slacks=7
num_states=26
objective=5.864803
objective_accelerations=0.663864
objective_balance=0.088282
objective_effort=0.501117
objective_height=4.529389
objective_ligament=0.082152
solver_duration=1506.414600
status=Solve_Succeeded
success=true
DataType=double
version=3
OpenSimVersion=4.4-2022-07-23-0e9fedc
endheader
time	/jointset/ground_pelvis/pelvis_tilt/value	/jointset/ground_pelvis/pelvis_tx/value	/jointset/ground_pelvis/pelvis_ty/value	/jointset/hip_l/hip_flexion_l/value	/jointset/hip_l/hip_adduction_l/value	/jointset/hip_l/hip_rotation_l/value	/jointset/back/lumbar_extension/value	/jointset/patellofemoral_l/patellar_flexion_l/value	/jointset/knee_l/knee_flexion_l/value	/jointset/knee_l/knee_adduction_l/value	/jointset/knee_l/knee_rotation_l/value	/jointset/ankle_l/ankle_angle_l/value	/jointset/subtalar_l/subtalar_angle_l/value	/jointset/ground_pelvis/pelvis_tilt/speed	/jointset/ground_pelvis/pelvis_tx/speed	/jointset/ground_pelvis/pelvis_ty/speed	/jointset/hip_l/hip_flexion_l/speed	/jointset/hip_l/hip_adduction_l/speed	/jointset/hip_l/hip_rotation_l/speed	/jointset/back/lumbar_extension/speed	/jointset/patellofemoral_l/patellar_flexion_l/speed	/jointset/knee_l/knee_flexion_l/speed	/jointset/knee_l/knee_adduction_l/speed	/jointset/knee_l/knee_rotation_l/speed	/jointset/ankle_l/ankle_angle_l/speed	/jointset/subtalar_l/subtalar_angle_l/speed	/forceset/tau_hip_flexion_l	/forceset/tau_hip_adduction_l	/forceset/tau_hip_rotation_l	/forceset/tau_knee_flexion_l	/forceset/tau_ankle_angle_l	/forceset/tau_subtalar_angle_l	/forceset/tau_lumbar_extension	lambda_cid13_p0	lambda_cid13_p1	lambda_cid13_p2	lambda_cid13_p3	lambda_cid13_p4	lambda_cid13_p5	lambda_cid14_p0	/jointset/ground_pelvis/pelvis_tilt/accel	/jointset/ground_pelvis/pelvis_tx/accel	/jointset/ground_pelvis/pelvis_ty/accel	/jointset/hip_l/hip_flexion_l/accel	/jointset/hip_l/hip_adduction_l/accel	/jointset/hip_l/hip_rotation_l/accel	/jointset/back/lumbar_extension/accel	/jointset/patellofemoral_l/patellar_flexion_l/accel	/jointset/knee_l/knee_flexion_l/accel	/jointset/knee_l/knee_adduction_l/accel	/jointset/knee_l/knee_rotation_l/accel	/jointset/ankle_l/ankle_angle_l/accel	/jointset/subtalar_l/subtalar_angle_l/accel	gamma_cid13_p0	gamma_cid13_p1	gamma_cid13_p2	gamma_cid13_p3	gamma_cid13_p4	gamma_cid13_p5	gamma_cid14_p0
0.5	-0.505502806404561	-0.1038265193131297	0.7510864115421765	1.346607072829811	-0.3115917017335977	-0.06245694360077371	-0.3415069215281016	0.6541893524119514	0.6541893524120286	-0.1741026683175494	0.1744304900288616	-0.02709925766501302	-0.06322739165432757	-0.9012062052744038	-0.3276483360010655	-0.5305681516181436	2.571509761586409	-0.05020472543200596	0.5743057653224383	-0.6110645928875972	1.680262373629737	1.680262373629736	-0.003236441908328425	0.001866377022974922	0.0878273434622813	-0.05051321157442126	-0.2781491288870213	0.01078831248698828	-0.0190649142614598	-0.1855951499620611	0.1759621751426467	0.04670343456817061	0.2412962277695573	17.37127701667343	-25.55342198993048	6.217019085938452	-8.945178784207076	-610.4019749082163	-61.79634764957176	-30.26923710374017	0.7455414325683096	0.8531001728466903	-0.2568939551428591	-1.81219744847664	0.5532862867557899	-0.2130260338763532	2.005345790562852	-1.072374478071076	-1.07237447807109	0.02132848931968717	-0.06177634198262379	0.08891466712883513	0.557767828769979	-2.262034933005054e-08	-9.887718385580936e-07	2.488192144235967e-07	-1.565059347904734e-07	-2.167862389928789e-07	1.577854129684442e-07	-1.762960320355033e-07
0.51	-0.5144756473367403	-0.107060001512176	0.7457690179017545	1.372227177786595	-0.3120671695034942	-0.0567264699478863	-0.3475175559382192	0.6709361459944864	0.6709361459944819	-0.1741352566860543	0.1744478457930262	-0.02621709899669698	-0.06370575662539768	-0.8932453472369796	-0.3190229846480473	-0.5328007635691349	2.552179907059618	-0.04489488909590428	0.5716924522330282	-0.5910061479658975	1.668873805234203	1.668873805234205	-0.003260868219819082	0.001623106099573112	0.08857393758208687	-0.04516699922166217	-0.2873721784184998	0.01135982407959661	-0.01917264186607218	-0.1865484977228607	0.1771504806611052	0.04735057127336748	0.2482390315189819	17.46620638265786	-25.73396082479207	6.112006673862379	-9.087295788794027	-615.4968762128111	-61.40252969862828	-29.33351348015024	0.8388374207716828	0.8709901613992387	-0.1900148641105766	-2.043097007146813	0.5190305841788967	-0.3001414877589687	2.014515018460507	-1.20544377931886	-1.205443779318579	-0.01144455381061382	-0.002968867079362193	0.06295835898519267	0.5220856020262375	-7.795358577682801e-08	-8.518085673946301e-07	4.962346899196624e-07	-9.631088933364115e-08	-2.35146279949746e-07	2.064112479288058e-07	-1.984325254811182e-07
0.52	-0.5233653838022541	-0.1102064826887184	0.740432584132016	1.397644040687643	-0.3124896992545971	-0.0510250609341661	-0.3533259216640212	0.6875623847412499	0.687562384741185	-0.1741675125901264	0.1744632955680529	-0.0253283890722672	-0.0641308519402409	-0.8845853119418545	-0.3102481315002969	-0.5343761774814421	2.53086135043817	-0.03961712167413178	0.5684928374921875	-0.570610856024709	1.656151406477696	1.6561514064777	-0.00316994902839419	0.001485179193751787	0.0891375946850438	-0.03985928032900558	-0.2965952279499739	0.01193133567217613	-0.01928036947043895	-0.187501845483702	0.1783387861795491	0.0479977079785319	0.2551818352684242	17.55305196390001	-25.91539708437698	6.00977904857793	-9.211298218551743	-620.7173097940209	-61.06097893450382	-28.38359371806916	0.8853768841085828	0.8830005317930526	-0.1254543474060842	-2.209937867407814	0.5468725038900359	-0.3302863641623572	2.07271519446067	-1.339140550265871	-1.339140550265858	0.04439758990284072	-0.04070753846668729	0.05232726375900461	0.5500691367495166	-1.827517596270067e-07	-6.426434070060965e-07	9.829218501955575e-07	1.548577836586918e-08	-2.861183345774025e-07	2.89881845673604e-07	-2.469146434454053e-07
0.53	-0.532165160771485	-0.113264598579212	0.7350836817452683	1.422837939863565	-0.3128599475838628	-0.04535686740893409	-0.3589287810987228	0.7040544471899546	0.7040544471899342	-0.1741996957839387	0.1744766168444754	-0.02443517923428225	-0.0645034380033009	-0.8752582123466095	-0.3013618900125076	-0.5352948085131742	2.507606387330001	-0.03444225060032981	0.5650503954529112	-0.5499232321308024	1.642049684963153	1.642049684963155	-0.003245347199809494	0.001198641148924992	0.08947052955358976	-0.03466940746639915	-0.3056815563696763	0.01236229279485234	-0.01936774532500614	-0.1882589361590152	0.1791430682476583	0.04854508702083996	0.2619209945324386	17.52230104133476	-26.03484626495755	5.899870983909782	-9.166563431629458	-625.7535376323056	-60.62224750431378	-27.42378093940986	0.9731226614178234	0.8934242863569894	-0.05870635619239305	-2.430131454199331	0.5012610943903981	-0.3657907466198204	2.072455804562063	-1.477343220993868	-1.477343220994182	-0.03034700894014165	-0.01997267685468289	0.01870652361126843	0.5016649118748192	-2.32735792047821e-07	-5.039725398234065e-07	1.219509845897159e-06	7.421177108255673e-08	-3.006182923534471e-07	3.36804236911231e-07	-2.658161642570275e-07
0.54	-0.5408683175119253	-0.116233454389011	0.729728865273176	1.447789918224075	-0.3131787538653333	-0.03972601182865833	-0.3643236303309426	0.7203991613697195	0.720399161369751	-0.1742320006571107	0.1744876035925731	-0.02353965406256864	-0.06482448162756331	-0.8652612661839418	-0.2923961153613784	-0.5355589945503137	2.482477187354715	-0.02932871211592422	0.5610252485012497	-0.5290088155286298	1.626681752690797	1.626681752690798	-0.003194284902274413	0.00101827352953738	0.08960066143049124	-0.02955079256944441	-0.3147678847893419	0.01279324991753915	-0.01945512117951297	-0.1890160268343327	0.1799473503157688	0.04909246606315882	0.2686601537964894	17.48702173504137	-26.15709269984838	5.794510203483029	-9.13674879782733	-630.8782175825057	-60.25467727439695	-26.46388623205084	1.019346197593229	0.8989071644609027	0.005434651512463576	-2.584785240831197	0.5346059860108443	-0.4468273466393032	2.118073736113947	-1.592382701828387	-1.592382701828387	0.06968968369298144	-0.01947345337905089	0.01176666542999429	0.5358175436192331	-2.220743913978486e-07	-4.432953587407999e-07	1.179392382920816e-06	7.422127232888652e-08	-2.747661429745164e-07	3.432903145664554e-07	-2.519902158784669e-07
0.55	-0.5494683214311132	-0.1191123260444355	0.7243746748247059	1.472481515290156	-0.313446707961037	-0.03413792778364635	-0.3695082733567743	0.7365839592699994	0.7365839592700617	-0.1742632158526565	0.1744969923832519	-0.02264377982400493	-0.0650946633882155	-0.854635454418893	-0.2833710138356154	-0.5351684993385043	2.455538645731226	-0.02428393687497714	0.556525296098289	-0.5078985610522094	1.610066573225174	1.610066573225173	-0.003057583025039179	0.0008594088737804667	0.08954010344851669	-0.02450905928403151	-0.3235427888958344	0.01300208091377362	-0.0195288159330805	-0.1899404609802966	0.1809334132756147	0.04941189870428238	0.2751006028981229	17.51181190197408	-26.19702615795394	5.683069499789885	-9.103610393058087	-635.8583414275367	-59.77102301550245	-25.50644251224072	1.099776758302173	0.9054067748434292	0.07239419373020439	-2.793962969306695	0.4860515974449359	-0.4617357783638664	2.110685591214713	-1.727724800238532	-1.727724800238712	-0.01568857723311076	-0.01436231156324479	-0.02007122890771465	0.4847560738260724	-2.011049212524571e-07	-4.001000960486247e-07	1.08612453365411e-06	6.338490203397559e-08	-2.434495261883035e-07	3.372133031586662e-07	-2.323151378222753e-07
0.5600000000000001	-0.5579589516141809	-0.1219007276589608	0.7190276967758968	1.496894612070768	-0.313664886643465	-0.02859687458091949	-0.3744811769802784	0.7525962775293642	0.7525962775294496	-0.174293333832832	0.174504738659378	-0.02174953200503923	-0.06531514684544908	-0.8433865189601788	-0.274302107181537	-0.5341165146180761	2.426777130259776	-0.01937362946169762	0.5516190800457491	-0.4866609350634348	1.592185824507184	1.592185824507183	-0.002974841826673222	0.0006897706224577063	0.08927537751068068	-0.01961113188566621	-0.3323176930023	0.01321091191000526	-0.0196025106867367	-0.1908648951262504	0.1819194762354575	0.04973133134540311	0.2815410519997879	17.53119882316136	-26.23943622899842	5.575933668181857	-9.082259010444773	-640.9392207397763	-59.35401752959367	-24.55203568121326	1.143970936326412	0.9076681901239056	0.1377325532361718	-2.949380010423477	0.5077124204774169	-0.5280800765550114	2.143548038584842	-1.845496552301573	-1.845496552301518	0.0588975479192119	-0.02162817249244226	-0.02906692574241435	0.5070563662097856	-1.677657677125629e-07	-3.778831354249665e-07	9.290762208389725e-07	3.953348588957623e-08	-2.05575548513352e-07	3.16060584875261e-07	-2.056211041529269e-07
